<svg width="51" height="11" viewBox="0 0 51 11" fill="none" xmlns="http://www.w3.org/2000/svg">
<path d="M11.46 0.572L13.056 3.284C13.104 3.364 13.128 3.472 13.128 3.608C13.128 3.808 13.08 3.992 12.984 4.16L9.36 10.424C9.272 10.584 9.136 10.72 8.952 10.832C8.776 10.944 8.612 11 8.46 11H0.396C0.172 11 0.06 10.904 0.06 10.712C0.06 10.624 0.088 10.528 0.144 10.424L3.144 5.24C3.232 5.08 3.364 4.944 3.54 4.832C3.724 4.72 3.896 4.664 4.056 4.664H8.088C8.24 4.664 8.404 4.608 8.58 4.496C8.764 4.384 8.9 4.248 8.988 4.088L10.908 0.775999C11.028 0.568 11.152 0.464 11.28 0.464C11.352 0.464 11.412 0.5 11.46 0.572ZM5.664 9.848L7.992 5.816C8.048 5.712 8.076 5.616 8.076 5.528C8.076 5.336 7.968 5.24 7.752 5.24C7.592 5.24 7.424 5.296 7.248 5.408C7.072 5.52 6.936 5.656 6.84 5.816L4.512 9.848C4.456 9.952 4.428 10.048 4.428 10.136C4.428 10.328 4.536 10.424 4.752 10.424C4.912 10.424 5.08 10.368 5.256 10.256C5.44 10.144 5.576 10.008 5.664 9.848ZM14.9212 4.664H22.9852C23.2012 4.664 23.3092 4.76 23.3092 4.952C23.3092 5.04 23.2812 5.136 23.2252 5.24L22.5532 6.392C22.4652 6.552 22.3292 6.688 22.1452 6.8C21.9692 6.912 21.8052 6.968 21.6532 6.968H18.7732C18.5492 6.968 18.4372 6.872 18.4372 6.68C18.4372 6.592 18.4652 6.496 18.5212 6.392L18.8572 5.816C18.9132 5.712 18.9412 5.616 18.9412 5.528C18.9412 5.336 18.8332 5.24 18.6172 5.24C18.4572 5.24 18.2892 5.296 18.1132 5.408C17.9372 5.52 17.8012 5.656 17.7052 5.816L15.0412 10.424C14.9532 10.584 14.8172 10.72 14.6332 10.832C14.4572 10.944 14.2932 11 14.1412 11H11.2612C11.0372 11 10.9252 10.904 10.9252 10.712C10.9252 10.624 10.9532 10.528 11.0092 10.424L14.0092 5.24C14.0972 5.08 14.2292 4.944 14.4052 4.832C14.5892 4.72 14.7612 4.664 14.9212 4.664ZM24.8263 11H21.9463C21.7223 11 21.6103 10.904 21.6103 10.712C21.6103 10.624 21.6383 10.528 21.6943 10.424L24.6943 5.24C24.7823 5.08 24.9143 4.944 25.0903 4.832C25.2743 4.72 25.4463 4.664 25.6063 4.664H28.4863C28.7023 4.664 28.8103 4.76 28.8103 4.952C28.8103 5.04 28.7823 5.136 28.7263 5.24L25.7263 10.424C25.6383 10.584 25.5023 10.72 25.3183 10.832C25.1423 10.944 24.9783 11 24.8263 11ZM36.3532 4.664H39.2332C39.4492 4.664 39.5572 4.76 39.5572 4.952C39.5572 5.04 39.5292 5.136 39.4732 5.24L36.4852 10.424C36.3892 10.584 36.2532 10.72 36.0772 10.832C35.9012 10.944 35.7332 11 35.5732 11H31.5412C31.1572 11 30.8892 10.876 30.7372 10.628L29.1532 7.916C29.1052 7.844 29.0812 7.744 29.0812 7.616C29.0812 7.392 29.1412 7.176 29.2612 6.968L30.2572 5.24C30.3452 5.08 30.4772 4.944 30.6532 4.832C30.8372 4.72 31.0092 4.664 31.1692 4.664H34.0492C34.2652 4.664 34.3732 4.76 34.3732 4.952C34.3732 5.04 34.3452 5.136 34.2892 5.24L31.6252 9.848C31.5692 9.952 31.5412 10.048 31.5412 10.136C31.5412 10.328 31.6532 10.424 31.8772 10.424C32.0292 10.424 32.1932 10.368 32.3692 10.256C32.5532 10.144 32.6892 10.008 32.7772 9.848L35.4412 5.24C35.5292 5.08 35.6612 4.944 35.8372 4.832C36.0212 4.72 36.1932 4.664 36.3532 4.664ZM49.0795 6.8C48.9035 6.912 48.7395 6.968 48.5875 6.968C48.4435 6.968 48.2915 6.996 48.1315 7.052C47.9235 7.124 47.8195 7.22 47.8195 7.34C47.8195 7.476 47.9635 7.544 48.2515 7.544C48.4755 7.544 48.5875 7.64 48.5875 7.832C48.5875 7.92 48.5555 8.016 48.4915 8.12L47.1595 10.424C47.0715 10.584 46.9355 10.72 46.7515 10.832C46.5755 10.944 46.4115 11 46.2595 11H38.1955C37.9715 11 37.8595 10.904 37.8595 10.712C37.8595 10.624 37.8875 10.528 37.9435 10.424L38.9515 8.696C39.0395 8.536 39.1715 8.4 39.3475 8.288C39.5235 8.176 39.6915 8.12 39.8515 8.12H42.7315C42.9555 8.12 43.0675 8.216 43.0675 8.408C43.0675 8.496 43.0395 8.592 42.9835 8.696L42.3115 9.848C42.2555 9.952 42.2275 10.048 42.2275 10.136C42.2275 10.328 42.3355 10.424 42.5515 10.424C42.7115 10.424 42.8795 10.368 43.0555 10.256C43.2395 10.144 43.3755 10.008 43.4635 9.848L44.4595 8.12C44.5235 8.016 44.5555 7.92 44.5555 7.832C44.5555 7.64 44.4435 7.544 44.2195 7.544C43.9315 7.544 43.7875 7.476 43.7875 7.34C43.7875 7.22 43.8915 7.124 44.0995 7.052C44.2595 6.996 44.4115 6.968 44.5555 6.968C44.7075 6.968 44.8715 6.912 45.0475 6.8C45.2315 6.688 45.3675 6.552 45.4555 6.392L45.7915 5.816C45.8475 5.712 45.8755 5.616 45.8755 5.528C45.8755 5.336 45.7675 5.24 45.5515 5.24C45.3915 5.24 45.2235 5.296 45.0475 5.408C44.8715 5.52 44.7355 5.656 44.6395 5.816C44.5515 5.976 44.4155 6.112 44.2315 6.224C44.0555 6.336 43.8875 6.392 43.7275 6.392H40.8475C40.6315 6.392 40.5235 6.296 40.5235 6.104C40.5235 6.016 40.5515 5.92 40.6075 5.816L40.9435 5.24C41.0315 5.08 41.1635 4.944 41.3395 4.832C41.5235 4.72 41.6955 4.664 41.8555 4.664H49.9195C50.1355 4.664 50.2435 4.76 50.2435 4.952C50.2435 5.04 50.2155 5.136 50.1595 5.24L49.4875 6.392C49.3995 6.552 49.2635 6.688 49.0795 6.8Z" fill="white"/>
</svg>
